<svg width="978" height="485" viewBox="0 0 978 485" fill="none" xmlns="http://www.w3.org/2000/svg">
<path d="M381.625 375.556L361.667 455.389L335.056 482H547.944L521.333 455.389L501.375 375.556H381.625ZM202 269.111H681H202ZM255.222 375.556H627.778C641.893 375.556 655.43 369.948 665.412 359.967C675.393 349.986 681 336.449 681 322.333V56.2222C681 42.1068 675.393 28.5695 665.412 18.5884C655.43 8.60732 641.893 3 627.778 3H255.222C241.107 3 227.57 8.60732 217.588 18.5884C207.607 28.5695 202 42.1068 202 56.2222V322.333C202 336.449 207.607 349.986 217.588 359.967C227.57 369.948 241.107 375.556 255.222 375.556Z" stroke="#7209B7" stroke-width="5" stroke-linecap="round" stroke-linejoin="round"/>
<rect x="557" y="151" width="398" height="257" rx="20" fill="white"/>
<path d="M950 482.5H558C551.017 482.5 545.051 480.242 539.978 475.709C534.939 471.206 532.5 465.851 532.5 459.508C532.5 453.163 534.942 447.729 540.003 443.085C545.079 438.427 551.037 436.115 558 436.115H950C956.963 436.115 962.921 438.427 967.997 443.085C973.058 447.729 975.5 453.163 975.5 459.508C975.5 465.851 973.061 471.206 968.022 475.709C962.949 480.242 956.983 482.5 950 482.5ZM922 405.423H586C579.017 405.423 573.051 403.165 567.978 398.632C562.95 394.14 560.5 388.722 560.5 382.231V176.692C560.5 170.495 562.93 165.124 568.003 160.469C573.079 155.812 579.037 153.5 586 153.5H922C929.281 153.5 935.29 155.828 940.192 160.447C945.123 165.094 947.5 170.472 947.5 176.692V382.231C947.5 388.746 945.104 394.169 940.216 398.654C935.318 403.149 929.301 405.423 922 405.423ZM924.5 189.538C924.5 185.298 922.774 181.637 919.534 178.664C916.298 175.694 912.412 174.192 908 174.192H600C595.588 174.192 591.702 175.694 588.466 178.664C585.226 181.637 583.5 185.298 583.5 189.538V343.692C583.5 347.933 585.226 351.594 588.466 354.567C591.702 357.536 595.588 359.038 600 359.038H908C912.412 359.038 916.298 357.536 919.534 354.567C922.774 351.594 924.5 347.933 924.5 343.692V189.538ZM616.5 204.483H774.633L616.5 325.778V204.483Z" stroke="#7209B7" stroke-width="5"/>
<rect x="144" y="97" width="101" height="388" fill="white"/>
<path d="M196.8 95H49.2C36.5 98 28.9812 105.509 19.5 115C10.0188 124.491 5 129 0 144.25V439.75C0 453.602 9.01875 459.509 18.5 469C27.9812 478.491 34 482 49.2 489H196.8C212 484.5 216.275 480.491 225.5 471C234.725 461.509 246 453.602 246 439.75V144.25C242 129.5 236.725 124.991 227.5 115.5C218.275 106.009 211 97.5 196.8 95ZM239.5 440C239.5 450.773 208.075 479.5 196.8 479.5H49.2C38.4375 479.5 6.5 450.523 6.5 439.75V258.91H239.5V440ZM239.5 252H6.5V144.25C6.5 133.477 38.4375 101 49.2 101H196.8C208.075 101 239.5 133.477 239.5 144.25V252ZM196.8 292C196.8 296.617 195.263 300.465 192.188 303.543C189.112 306.621 185.269 308.16 180.656 308.16C176.044 308.16 172.2 306.621 169.125 303.543C166.05 300.465 164.512 296.617 164.512 292C164.512 287.383 166.05 283.535 169.125 280.457C172.2 277.379 176.044 275.84 180.656 275.84C185.269 275.84 189.112 277.379 192.188 280.457C195.263 283.535 196.8 287.383 196.8 292ZM49.2 178.5H196.8V193.5H49.2V178.5ZM180.656 218.125C180.656 223.768 177.837 226.59 172.2 226.59C167.075 226.59 164.512 223.768 164.512 218.125C164.512 212.482 167.075 209.66 172.2 209.66C177.837 209.66 180.656 212.482 180.656 218.125ZM66.1125 430.5H115.312V439.75H66.1125V430.5ZM131.456 430.5H180.656V439.75H131.456V430.5Z" fill="#7209B7"/>
</svg>
