<svg width="273" height="273" viewBox="0 0 273 273" fill="none" xmlns="http://www.w3.org/2000/svg">
<path d="M74.1832 117.754L83.1922 119.028L74.1832 117.754ZM74.0012 119.028L64.9922 117.754L74.0012 119.028ZM198.817 117.754L207.826 116.48L198.817 117.754ZM198.999 119.028L189.99 120.302L198.999 119.028ZM172.9 227.5V236.6C175.313 236.6 177.628 235.641 179.335 233.935C181.041 232.228 182 229.913 182 227.5H172.9ZM100.1 227.5H91C91 229.913 91.9588 232.228 93.6653 233.935C95.3719 235.641 97.6865 236.6 100.1 236.6V227.5ZM86.541 166.585L93.7482 161.015L86.541 166.585ZM186.459 166.585L179.252 161.015L186.459 166.585ZM109.2 273H163.8V254.8H109.2V273ZM65.156 116.48L64.974 117.754L82.992 120.302L83.174 119.028L65.156 116.48ZM136.5 54.6C119.151 54.5971 102.383 60.8542 89.2766 72.2219C76.1703 83.5896 67.6057 99.3045 65.156 116.48L83.174 119.028C85.0098 106.194 91.4135 94.4536 101.209 85.9617C111.005 77.4697 123.536 72.7964 136.5 72.8V54.6ZM207.844 116.48C205.394 99.3045 196.83 83.5896 183.723 72.2219C170.617 60.8542 153.849 54.5971 136.5 54.6V72.8C149.463 72.8002 161.992 77.4748 171.787 85.9661C181.582 94.4574 187.987 106.196 189.826 119.028L207.844 116.48ZM208.026 117.754L207.844 116.48L189.826 119.028L190.008 120.302L208.026 117.754ZM193.648 172.154C205.114 157.339 210.902 138.029 208.026 117.736L190.008 120.32C191.05 127.477 190.637 134.771 188.791 141.763C186.946 148.756 183.708 155.305 179.27 161.015L193.648 172.154ZM163.8 198.38V227.5H182V198.398H163.8V198.38ZM172.9 218.4H100.1V236.6H172.9V218.4ZM109.2 227.5V198.398H91V227.5H109.2ZM64.974 117.754C63.5905 127.322 64.1507 137.072 66.6212 146.419C69.0916 155.766 73.4215 164.518 79.352 172.154L93.73 161.015C89.2924 155.305 86.0539 148.756 84.2087 141.763C82.3635 134.771 81.9497 127.477 82.992 120.32L64.974 117.736V117.754ZM109.2 198.38C109.2 183.401 101.228 170.661 93.73 160.997L79.352 172.136C86.3226 181.145 91 189.753 91 198.38H109.2ZM179.27 160.997C171.753 170.68 163.8 183.401 163.8 198.38H182C182 189.753 186.677 181.145 193.648 172.136L179.27 160.997V160.997ZM127.4 0V36.4H145.6V0H127.4ZM0 145.6H36.4V127.4H0V145.6ZM236.6 145.6H273V127.4H236.6V145.6ZM61.0428 66.3572L33.7428 39.0572L20.8572 51.9428L48.1572 79.2428L61.0428 66.3572ZM224.843 79.2428L252.143 51.9428L239.257 39.0572L211.957 66.3572L224.843 79.2428Z" fill="#7209B7"/>
</svg>
