<svg width="244" height="224" viewBox="0 0 244 224" fill="none" xmlns="http://www.w3.org/2000/svg">
<path d="M200.188 151.688C204.985 151.688 208.875 148.134 208.875 143.75C208.875 139.366 204.985 135.812 200.188 135.812C195.39 135.812 191.5 139.366 191.5 143.75C191.5 148.134 195.39 151.688 200.188 151.688Z" fill="#7209B7"/>
<path d="M151.659 223.125H113.312V188.089L157.045 148.132C156.851 146.678 156.752 145.215 156.75 143.75C156.744 135.712 159.409 127.862 164.393 121.239C169.377 114.616 176.444 109.531 184.66 106.658C192.876 103.784 201.853 103.258 210.403 105.148C218.954 107.039 226.674 111.256 232.544 117.244C238.413 123.231 242.154 130.705 243.273 138.678C244.391 146.65 242.833 154.745 238.806 161.891C234.779 169.037 228.472 174.897 220.72 178.697C212.968 182.496 204.135 184.055 195.392 183.168L151.659 223.125ZM130.688 207.25H144.466L189.693 165.927L194.384 166.912C199.969 168.126 205.835 167.641 211.091 165.532C216.347 163.423 220.706 159.804 223.505 155.226C226.305 150.647 227.393 145.358 226.604 140.163C225.814 134.968 223.191 130.15 219.132 126.441C215.073 122.732 209.799 120.335 204.113 119.614C198.427 118.893 192.639 119.887 187.628 122.445C182.616 125.003 178.655 128.986 176.347 133.788C174.039 138.59 173.509 143.95 174.837 149.052L175.915 153.339L130.688 194.661V207.25Z" fill="#7209B7"/>
<path d="M35.125 48.5H52.5V112H35.125V48.5Z" fill="#7209B7"/>
<path d="M0.375 48.5H17.75V112H0.375V48.5Z" fill="#7209B7"/>
<path d="M139.375 48.5H156.75V96.125H139.375V48.5Z" fill="#7209B7"/>
<path d="M104.625 112H87.25C82.6419 112 78.2225 110.327 74.964 107.35C71.7056 104.373 69.875 100.335 69.875 96.125V64.375C69.875 60.1647 71.7056 56.1268 74.964 53.1497C78.2225 50.1725 82.6419 48.5 87.25 48.5H104.625C109.233 48.5 113.653 50.1725 116.911 53.1497C120.169 56.1268 122 60.1647 122 64.375V96.125C122 100.335 120.169 104.373 116.911 107.35C113.653 110.327 109.233 112 104.625 112ZM87.25 96.125H104.625V64.375H87.25V96.125Z" fill="#7209B7"/>
<path d="M0.375 127.875H17.75V191.375H0.375V127.875Z" fill="#7209B7"/>
<path d="M104.625 127.875H122V159.625H104.625V127.875Z" fill="#7209B7"/>
<path d="M69.875 191.375H52.5C47.8919 191.375 43.4725 189.702 40.214 186.725C36.9556 183.748 35.125 179.71 35.125 175.5V143.75C35.125 139.54 36.9556 135.502 40.214 132.525C43.4725 129.548 47.8919 127.875 52.5 127.875H69.875C74.4831 127.875 78.9025 129.548 82.161 132.525C85.4194 135.502 87.25 139.54 87.25 143.75V175.5C87.25 179.71 85.4194 183.748 82.161 186.725C78.9025 189.702 74.4831 191.375 69.875 191.375ZM52.5 175.5H69.875V143.75H52.5V175.5Z" fill="#7209B7"/>
<path d="M0.375 0.875H17.75V32.625H0.375V0.875Z" fill="#7209B7"/>
<path d="M104.625 0.875H122V32.625H104.625V0.875Z" fill="#7209B7"/>
<path d="M139.375 0.875H156.75V32.625H139.375V0.875Z" fill="#7209B7"/>
<path d="M69.875 32.625H52.5C47.8919 32.625 43.4725 30.9525 40.214 27.9753C36.9556 24.9982 35.125 20.9603 35.125 16.75V0.875H52.5V16.75H69.875V0.875H87.25V16.75C87.25 20.9603 85.4194 24.9982 82.161 27.9753C78.9025 30.9525 74.4831 32.625 69.875 32.625Z" fill="#7209B7"/>
</svg>
