<svg width="228" height="244" viewBox="0 0 228 244" fill="none" xmlns="http://www.w3.org/2000/svg">
<path d="M205.031 0H22.7813C10.2516 0 0 10.2938 0 22.875V221.125C0 233.706 10.2516 244 22.7813 244H205.031C217.561 244 227.813 233.706 227.813 221.125V22.875C227.813 10.2938 217.561 0 205.031 0ZM205.031 221.125H22.7813V22.875H205.031V221.125ZM60.75 137.25H167.063V152.5H60.75V137.25ZM60.75 167.75H167.063V183H60.75V167.75ZM75.9375 68.625C75.9385 65.62 76.5289 62.6446 77.6751 59.8688C78.8213 57.0929 80.5007 54.5709 82.6176 52.4468C84.7344 50.3226 87.2472 48.638 90.0124 47.4889C92.7777 46.3399 95.7413 45.749 98.7339 45.75C101.727 45.751 104.69 46.3439 107.454 47.4948C110.219 48.6456 112.73 50.332 114.846 52.4576C116.961 54.5831 118.639 57.1062 119.783 59.8829C120.928 62.6595 121.516 65.6353 121.515 68.6402C121.513 74.7091 119.11 80.5286 114.835 84.8185C110.56 89.1084 104.763 91.5173 98.7188 91.5152C92.6748 91.5132 86.8791 89.1004 82.6068 84.8077C78.3345 80.5149 75.9355 74.6938 75.9375 68.625ZM113.906 91.5H83.5313C71.0016 91.5 60.75 98.3625 60.75 106.75V122H136.688V106.75C136.688 98.3625 126.436 91.5 113.906 91.5Z" fill="#7209B7"/>
</svg>
