<svg width="276" height="226" viewBox="0 0 276 226" fill="none" xmlns="http://www.w3.org/2000/svg">
<path d="M200.5 225.5H75.5001V200.5H100.5V188H25.5001C18.8697 188 12.5109 185.366 7.82245 180.678C3.13404 175.989 0.500122 169.63 0.500122 163V25.5C0.500122 18.8696 3.13404 12.5107 7.82245 7.82233C12.5109 3.13392 18.8697 0.5 25.5001 0.5H250.5C257.131 0.5 263.489 3.13392 268.178 7.82233C272.866 12.5107 275.5 18.8696 275.5 25.5V163C275.5 169.63 272.866 175.989 268.178 180.678C263.489 185.366 257.131 188 250.5 188H175.5V200.5H200.5V225.5ZM20 19V91.5V167.5H132.5H259V91.5V19H138H20Z" fill="#7209B7"/>
<path d="M53.9686 148.34H83.5706L108.398 47.8168H124.631L138.955 107.744L164.737 47.8168H183.835V148.34H222.031" stroke="#7209B7" stroke-width="10"/>
</svg>
