<svg width="335" height="335" viewBox="0 0 335 335" fill="none" xmlns="http://www.w3.org/2000/svg">
<mask id="mask0" style="mask-type:alpha" maskUnits="userSpaceOnUse" x="0" y="0" width="335" height="335">
<circle cx="167.5" cy="167.5" r="167.5" fill="#7209B7"/>
</mask>
<g mask="url(#mask0)">
<circle cx="167.5" cy="167.5" r="167.5" fill="#7209B7"/>
<path d="M103.5 195.032C103.868 195.964 104.284 197.03 104.73 198.187C111.375 213.749 125.407 226.345 139 231.032C150.6 235.032 171.833 235.032 181 234.532C201.641 233.186 215.839 220.967 217.45 218.475C217.482 218.187 217.5 218.032 217.5 218.032C217.654 218.032 217.634 218.19 217.45 218.475C217.155 221.106 215.65 234.82 215.5 242.032C174.7 308.032 129.5 268.532 112 240.532V220.532C112 217.748 107.711 205.931 104.73 198.187C104.286 197.148 103.875 196.096 103.5 195.032Z" fill="#E8CEB7"/>
<path d="M115.5 77.532C112.5 80.032 106.8 85.832 108 89.032C109.484 92.9891 101.67 108.69 101.019 125.002C101.013 125.185 101.006 125.362 101 125.532C101.005 125.355 101.012 125.178 101.019 125.002C101.175 120.303 101.27 111.111 100.5 108.032C99.5 94.6987 102 64.132 120 48.532C128.833 36.8653 154.4 16.232 186 27.032C191.5 25.8653 206.1 28.932 220.5 50.532C226.667 59.032 238.4 81.732 236 104.532L233.5 116.532C233.333 111.532 232.4 100.832 230 98.032C229.167 88.032 224.4 66.532 212 60.532C198.167 54.8653 160.4 46.932 120 60.532C117.833 62.3653 113.9 68.332 115.5 77.532Z" fill="#2B2828"/>
<path d="M99.2078 143.056C94.4069 121.713 98.541 117.719 101.208 118.39V121.878C101.851 116.565 106.262 99.329 108.71 90.2006C105.909 87.3816 112.21 80.6362 115.711 77.6159C113.71 70.3671 117.545 63.1854 119.712 60.5007C154.118 48.0167 191.392 53.9566 205.728 58.4871C223.331 61.3061 229.399 86.1735 230.232 98.2548C232.232 100.671 233.733 112.685 234.233 118.39C237.433 128.055 235.566 159.332 234.233 173.763C228.232 214.034 215.729 242.727 151.217 234.673C99.6079 228.229 95.0404 170.91 99.2078 143.056Z" fill="#EDD5BF"/>
<path d="M121.334 118.055C128.743 107.014 145.911 108.745 153.569 110.992C154.131 111.687 153.621 112.004 153.295 112.075C131.902 113.488 123.868 117.159 122.525 118.818C121.048 119.551 121.116 118.615 121.334 118.055Z" fill="#2A2828"/>
<path d="M218.977 118.725C208.341 107.539 195.89 108.987 190.995 111.109C189.031 112.233 190.557 112.718 191.566 112.819C205.16 112.374 215.688 119.385 217.618 119.91C219.162 120.33 219.167 119.295 218.977 118.725Z" fill="#2A2828"/>
<path d="M153.5 131.532C142.7 122.332 128 127.699 122 131.532C120.8 133.132 122.5 132.865 123.5 132.532C135.1 129.732 147.333 131.699 152 133.032C155.2 133.832 154.333 132.365 153.5 131.532Z" fill="#AF8975"/>
<path d="M216.275 132.333C204.275 122.733 192.608 128.333 188.275 132.333C187.475 133.533 188.608 133.499 189.275 133.333C198.475 130.533 210.442 132.166 215.275 133.333C216.875 133.733 216.608 132.833 216.275 132.333Z" fill="#AF8975"/>
<path d="M152.5 164.032C159.167 168.199 176 174.032 190 164.032H152.5Z" fill="#886C5D"/>
<path d="M142 183.032C151.333 197.699 175.8 218.232 199 183.032H142Z" fill="#644F4F"/>
<path d="M148.5 189.032C146.1 189.032 145.167 185.032 145 183.032H194.5C194.9 188.232 192.667 189.199 191.5 189.032H148.5Z" fill="#FFFBFB"/>
<path d="M185 198.032C182.2 194.832 174.167 194.365 170.5 194.532C161.3 192.532 157.667 196.032 157 198.032C169.4 206.032 180.833 201.365 185 198.032Z" fill="#9F5A5A"/>
<path d="M217.5 218.032C218.7 217.232 221.667 212.699 223 210.532C224.2 209.332 228.167 199.032 230 194.032C244 194.032 255.5 217.365 259.5 229.032C327.5 248.232 349.167 314.032 351.5 344.532H-18C-17.2 275.732 37.3333 238.865 64.5 229.032C71.3 206.232 93.3333 196.199 103.5 194.032C105.9 198.432 110.167 213.199 112 220.032V240.532C114.4 245.332 122 253.865 125.5 257.532C140.3 273.932 158 278.032 165 278.032C188.2 279.632 208.333 254.699 215.5 242.032C215.1 241.632 216.667 225.865 217.5 218.032Z" fill="#373253"/>
<path d="M55.5 233.032C58.7 231.432 62.5 230.032 64 229.532C63.2843 250.645 87.5935 266.663 103.703 273.862C105.412 274.589 107.177 275.313 109 276.032C107.384 275.435 105.601 274.709 103.703 273.862C66.4218 257.98 55.9781 240.203 55.5 233.032Z" fill="#34323E"/>
<path d="M268 232.532C266.8 231.732 261.833 230.199 259.5 229.532C261.5 249.932 235.333 268.365 222 275.032C250.8 267.032 264.667 243.365 268 232.532Z" fill="#34323E"/>
<path d="M201.5 332.532V285.032L205.5 283.532V332.532H201.5Z" fill="white"/>
<path d="M136.5 339.032V285.032L132.5 284.032V339.032H136.5Z" fill="white"/>
<path d="M64.5 229.032C62.5 241.865 76.5 271.532 148.5 287.532" stroke="#22202D"/>
<path d="M259.5 229.532C261.167 240.032 250.1 266.532 192.5 288.532" stroke="#22202D"/>
</g>
</svg>
